# xmcd
#
# Track frame offsets: 
#        182
#        16337
#        30592
#        46417
#        61520
#        76625
#        88932
#        103915
#        117232
#        135900
#        152645
#        167187
#        182625
#        199735
#        219310
#        234860
#
# Disc length: 3435 seconds
#
# Revision: 5
# Processed by: cddbd v1.5.2PL0 Copyright (c) Steve Scherf et al.
# Submitted via: ExactAudioCopy v1.0b3
#
DISCID=c00d6910
DTITLE=TRUCK STOP - ON THE ROAD
DYEAR=2000
DGENRE=Country
TTITLE0=Ich Möcht' So Gern Dave Dudley Hör'n
TTITLE1=Big White Diesel
TTITLE2=Trucker Lieben Die Freiheit
TTITLE3=Ich Will Nach Hause
TTITLE4=Trucker Bleibt Trucker
TTITLE5=Cisco, Lucius, Erich, Uwe, Teddy Und Ich
TTITLE6=Hinterm Lenker
TTITLE7=Arizona - Arizona
TTITLE8=Route 66
TTITLE9=Alabama Moon
TTITLE10=Pack Dein Herz In Einen Koffer
TTITLE11=Lady Harley
TTITLE12=Der Kaffee Muss Schwarz Sein
TTITLE13=Wohin Der Wind Dich Treibt
TTITLE14=Maschen-Draht-Zaun
TTITLE15=Super-Hit-Medley
EXTD=YEAR: 2000
EXTT0=
EXTT1=
EXTT2=
EXTT3=
EXTT4=
EXTT5=
EXTT6=
EXTT7=
EXTT8=
EXTT9=
EXTT10=
EXTT11=
EXTT12=
EXTT13=
EXTT14=
EXTT15=
PLAYORDER=
